<svg xmlns="http://www.w3.org/2000/svg" xml:space="preserve" width="758" height="828" style="shape-rendering:geometricPrecision;text-rendering:geometricPrecision;image-rendering:optimizeQuality;fill-rule:evenodd;clip-rule:evenodd"><defs><style>.fil0{fill:#1f5972}</style></defs><g id="Слой_x0020_1"><g id="_840748704"><path d="m294 773-15 11-30 44H0V361h8c45-8 94-15 140-2 58 15 67 55 111 52l-20 36c-4 1-4-1-4 9h-14v1h14l-1 5-14 1v5c20 30-11 71 11 94 5 4 15 11 18 16 8 18-8 12-10 33 0 11 3 15 6 23-3 2-11 4-13 5-5 2 5 5 5 5 3 15-12 11-10 22 2 9 6 17 7 26 1 13-5 20-17 22-26 4-47-7-57 0-22 16-22 92-9 101 4-8 48-76 59-77 19-4 41 5 72 3 12-2 21-6 24-15 4-13 0-20-3-27-3-5-4-16 0-20 5-5 11-2 18-3 4-8 3-18-1-23-7-8-17-6-23-10 0-3 1-4 5-5 8-2 21-2 29-1-3-22-8-36 3-49 8-10 17-12 26-22 5-2 2-17-4-19-24-14-28-22-37-32-10-13-9-38-4-55 17-54 42-117-36-174-20-13-37-11-42-14l-10-8c-14-11-28-20-46-27-59-24-126-12-181 12V0h156l92 26c1 2 0 1 2 2-2 3-2 2-1 5 3 1 6 1 9 1 4 1 0 2 10 2-1 3-2 2-8 3-3 0-9 0-11 1 3 2 14 2 18 1l3-1c6-2 5 2 7-3-2-1 2-2-8-1l-2-3c3 1 4 2 7 1 6 0 77 21 88 24l87 26-6 2h-2c2 7 1 5 1 11-19 5-99 12-122 14l-127 9c7 3 59 4 70 5 66 1 148-4 213-10 55-5 73-8 129 12 28 10 55 18 84 27 7 1 24 5 28 7 1 3 0 1 2 3-1 0-1-1-2 0-2 4 2-3 2 8 1-2 0-2 2-2h3l1 1c1 0 3 2 3 2l1 2c1-1 0-3 2-1-1 0-4 1-5 2-1 2-1 0-1 3-5 3-123 35-130 36l-66 18-67 16c1 9 22 64 12 91-3 10-10 11-23 10-4 8-7 28-8 38-2 16-2 29 0 44 4 40 26 66 26 66l-18 76c-2 14 11 22 10 33-2 11-14 16-25 18 0 5 3 9 6 14 3 6 3 9 2 17 0 18-23 0-20 18 1 3 2 5 3 8 3 19 4 46-4 62-5 11-10 12-24 15-12 2-26 2-38 2-25-1-49-2-67 12zm-55-326c0 12 2 15 8 21h-27v-5l14-1 1-5h-14v-1h14c0-10 0-8 4-9zm230 51c19 22 29 30 25 46-2 8-13 16-29 16-10 1-13 5-14 14l18-76zm248-337 41 8c-2 2-5 2-8 3l-25 7c0-3 0-1 1-3 1-1 4-2 5-2-2-2-1 0-2 1l-1-2s-2-2-3-2l-1-1h-3c-2 0-1 0-2 2 0-11-4-4-2-8 1-1 1 0 2 0-2-2-1 0-2-3zM449 84c4 1 7 2 11 3 3 1 8 2 10 4-9 2-17 5-28 6 0-6 1-4-1-11h2l6-2zM248 26c5 1 23 5 26 8-3 1-4 0-7-1l2 3c10-1 6 0 8 1-2 5-1 1-7 3l-3 1c-4 1-15 1-18-1 2-1 8-1 11-1 6-1 7 0 8-3-10 0-6-1-10-2-3 0-6 0-9-1-1-3-1-2 1-5-2-1-1 0-2-2z" class="fil0"/><path d="M616 438c-2 0-1 5-1 7 1 1 2 0 1 2-1 4 0 2-2 2-2-1-1 2-2-3v-3c0-3-1-3-1-7-3 0-2 1-4-2 7 2-6 1-7 1 2-5-2-4-3-7 0 0 1-8-2-12-1 1 0-1 0 2-1 5-1 3-2 5-2 7 1 8-2 15v2c-1 1-1 1-1 2-1 3-1 3-2 4l-3-7c1 6 2 18 0 24-3-7-5-93-5-108-1-16-4-34-7-50l-9-47c3-1 9-2 13-3s6-4 11-4c6 1 7 3 7 9 0 44 1 92 1 137 1 41 17 26 20 41zm10 295c-4-5-16-49-18-59-10-48-17-88-19-137-1-9-4-71-4-74 2-6 1-18 0-24l3 7c1-1 1-1 2-4 0-1 0-1 1-2v-2c3-7 0-8 2-15 1-2 1 0 2-5 0-3-1-1 0-2 3 4 2 12 2 12 1 3 5 2 3 7 1 0 14 1 7-1 2 3 1 2 4 2 0 4 1 4 1 7v3c1 5 0 2 2 3 2 0 1 2 2-2 1-2 0-1-1-2 0-2-1-7 1-7 3 3 8 68 9 79 6 50 21 132 48 173 3 5 5 9 9 13l11 11c-1 1-4 3-6 4-3 0-8 0-11-1-2-1 0 0-1-2-3 1 0-1-2 2l-8 7c-2 2-2 3-2 7h-4l-26 1-2-14c0 6-1 12 1 17-5-3 3 2-1-2-3-2-1-1-4-2-1 1 0-1-1 2zm0 0c1-3 0-1 1-2 3 1 1 0 4 2 4 4-4-1 1 2-2-5-1-11-1-17l2 14 26-1h4c0-4 0-5 2-7l8-7c2-3-1-1 2-2 1 2-1 1 1 2 3 1 8 1 11 1-3 4-35 24-37 24-4 1-14 1-20 1-1-4-3-5-4-10z" class="fil0"/></g></g></svg>